<?xml version="1.0" encoding="utf-8"?>
<!-- Generator: Adobe Illustrator 25.3.1, SVG Export Plug-In . SVG Version: 6.00 Build 0)  -->
<svg version="1.1" id="Слой_1" xmlns="http://www.w3.org/2000/svg" xmlns:xlink="http://www.w3.org/1999/xlink" x="0px" y="0px"
	 viewBox="0 0 5000 5000" style="enable-background:new 0 0 5000 5000;" xml:space="preserve">
<path d="M4429.42,2694.93c-50.45,8.46-69.8,102.63-204.45,195.79c-37.27,25.79-80.12,43.78-95.19,57.22
	c39.26,19.07,134.57,29.06,225.14,224.54c15.95,34.42,102.51,48.16,63.3,213.24c-1.08,4.53-33.69,141.63-37.21,148.4
	c-8.1-4.43-70.34-91.44-75.6-99.07c-73.28-106.04,40.75-222.72,11.37-271.55c-24.3-40.38-68.05-97.53-103.31-119.67
	c27.68,137.95-10.3,140.69-16.19,175.07c-2.3,13.45,4.08,28.14,3.76,42.22c-1.69,74.73-43.6,94.42-100.62,134.02
	c-50.86,35.31-53.15,39.13-53.44,25.01c-1.78-85.81-9.51-133.82,58.41-187.17c52.93-41.57,81.39-24.55,86.89-41.68
	c6.07-18.87,9.43-54.63,2.54-95.01c-3.24-18.97-8.08-0.78-44.81,30.93c-61.24,52.87-92.47,31.69-186.69,3.41
	c-8.2-2.46-15.31-5.77-7.8-9.82c87.38-47.17,126.09-80.97,185.63-41.86c23.09,15.17,23.38,13.93,37.4-10.51
	c6.01-10.48,5.51-19.29-0.82-29.17c-21.29-33.21-40.94-47.76-109.76-55.58c-51.05-5.8-96.26,33.03-210.6,57.03
	c-45.72,9.6-49.72,2.05-43.69,21.33c10.04,32.13,56.06,77.56,79.88,143.71c34.18,94.96-9.94,136.09-49.79,197.31
	c-15.02,23.08-73.34-106.98-83.14-150.29c-8.98-39.71,10.31-67.72,27.08-120.8c27.29-86.39-2.56-81.19-89.52-82.28
	c-205.28-2.6-348.11-45.64-331.34-19.27c82.15,129.16,88.06,313.03,48.84,437.14c-8.42,26.65,26.74,137.47-79.37,232.61
	c-91.84,82.35-136.99,153.66-123.62,122.92c37.2-85.51-6.27-231.01,146.31-344.06c50.41-37.35,44.27-221.07,33.15-242.52
	c-0.4,0.7-41.48,91.42-42.19,103.02c-6.77,109.91-85.6,110.39-165.94,189.68c-31.73,31.32,24.81-111.52,25.17-112.22
	c58.08-111.58,121.48-45.98,152.79-217.37c8.9-48.76-17.39-102.49-55.45-163.7c-14.13-22.72-23.06-16.32-75.36-17.04
	c-142.35-1.95-112.2-2.57-128.12-0.28c65.68,48.84,155.55,64.12,88.4,215.33c-40.07,90.24-38.56,88.4-50.65,77.18
	c-15.65-14.53-58.93-77.14-67.62-139.47c-14.41-103.36,95.11-191.79-128.52-135.31c-233.43,58.95-341.64,235.7-312.59,226.28
	c165.89-53.82,269.56,33.57,334.88,53.41c98.35,29.87,73,123.96,122.92,188.42c1.83,2.36,2.21,5.84,3.26,8.8
	c-3.03-0.12-6.43,0.62-9.04-0.5c-75.49-32.1-130.94-44.73-154.42-127.26c-16.34-57.42-21.27-64.33-33.71-71.09
	c-60.66-32.97-92.33-28.05-161.44-27.76c-1.37,0.01-10.66,1.49-2.36,7.11c65.3,44.25,65.36,88.65,86.35,101.55
	c46.89,28.81,80.34,75.96,71.43,131.05c-30.54,188.9-11.65,145.57-19.23,171.5c-8.09-5.52-90.52-98.14-91.14-98.85
	c-84.77-97.71,21.29-202.52-6.36-233.87c-24.67-27.96-78.91-79.45-112.99-63.71c-86.72,40.06-95.47,2.47-208.43,308.16
	c-9.65,26.11,20.67,60.22,49.79,167.44c164.6,605.86,217.11,1179.12,213.88,1223.01h-433.33
	c-10.93-51.64,108.28-736.77-5.96-1167.01c-65.46-246.52-42.91-233.55-67.45-262.22c-100.87-117.89-148.83-127.24-284.9-182.48
	c-8.52-3.46-6.76-2.79-124.15,35.74c-35.21,11.56,29.5,9.44,74.98,60.79c75.86,85.64,46.59,245.99-10.12,293.92
	c-8.62-14.21-24.93-71.94-29.56-88.05c-19.25-66.98-66.68-100.68-102.19-141.72c-40.91-47.29-20.22-74.8-40.87-60.18
	c-68.33,48.35-100.58,90.82-123.76,116.15c-17.59,19.22-0.38,131.56,4.65,157.22c3.63,18.51,5.63,16.53,92.17,64.1
	c110.11,60.53,94.77,138.48,74.4,253.51c-3.46,19.57-4.52,20.23-20.02,7.05c-39.42-33.51-80.37-65.53-117.23-101.69
	c-92.8-91.06-29.3-171.44-53.22-239.05c-9.38-26.51-10.26-51.67-18.81-86.74c-71.43,78.12-63.87,279.06-172.64,394.6
	c-16.08,17.08-43.93,29.97-53.39,47.87c-82.28,155.51-212.17,67.23-340.81,102.04c-3.37-3.32,39.94-61.46,40.81-62.6
	c91.47-119.91,146.14-66.58,296.46-78.15c11.2-0.86,47.76-31.96,74.18-87.47c23.34-49.04,53.99-206.97,39.22-198.29
	c-86.63,50.88-79.12,45.65-85.31,54.99c-58.25,87.82-107.37,34.14-241.48,85.37c-27.48,10.5-3.72-19.51,46.58-93.56
	c73.83-108.7,197.13-18.47,218.39-37.36c169.27-150.35,14.85-31.71,207.43-282.37c11.27-14.67-28.23-13.93-40.98-10.08
	c-38.98,11.77-84.98-3.13-109.57-25.73c-84.41-77.59-157.81-83.25-101.84-95.69c20.37-4.53,41.16-7.63,61.05-13.71
	c139.92-42.79,158.07,116.61,195.72,116.38c46.13-0.28,47.25-42.01,197.53-126.64c34.67-19.52-233.45-28.77-451.3-132.17
	c-13.79-6.54-16.57-5.88-94.23,21.66c-27.82,9.86-70.76,126.82-54.9,142.93c64.9,65.93,109.54,101.43,109.65,183.77
	c0.15,111.37,15.92,99.47-62.84,30.34c-41.29-36.24-87.65-48.21-92.36-125.9c-3.77-62.19,20.75-80.13,24.84-109.53
	c14.07-100.96,31.45-95.48,27.12-99.85c-25.64,12.55-6.86-4.86-115.26,84.43c-21.14,17.41-20.55,113.92-13.66,161.06
	c10.59,72.42,10.91,130.38-33.68,180.1c-30.6,34.11-51.29,55.53-74.85,67.36c-7.91-37.91-0.24-64.5-19.02-181.53
	c-16.42-102.34,53.55-196.15,107.43-218.84c2.38-1,72.32-71.52,52.13-67.3c-57.84,12.07-76.79,9.57-107.95,50.71
	c-12.26,16.18-17.93,62.87-81.17,90.57c-24.61,10.78-50.76,18.09-76.32,26.64c-9.05,3.03-13.29-0.19-11.38-9.28
	c40.64-193.55,151.3-140.62,226.99-168.02c88.47-32.02,81.94-12.3,98.62-23.97c144.49-101.06,194.46-15.02,32.73-125.7
	c-76.3-52.22-131.36-131.6-151.71-153.39c-23.23-24.86-129.28-35.56-165.02-33.73c-38.48,1.97-78.32,45.67-97.95,79.03
	c-69.43,117.95,119.31,204.38,23.57,358.86c-87.42,141.07-46.1,171.66-94.04,5.41c-10.17-35.28-37.95-94.08-43.61-108.57
	c-30.45-78.01,16.83-162.39,60.59-194.96c6.86-5.11,11-19.55,14.18-27.29c31.07-75.63,52.19-82.77,61.07-100.4
	c-23.85,1.37-103.21,28.02-152.46,70.36c-21.41,18.41-24.07,85.09-26.64,116.45c-5.3,64.6-42.38,89.96-96.28,125.04
	c-60.15,39.14-50.95,62.58-77.77,78.03c-5.89-25.75,7.21-56.69,11.23-161.24c5.98-155.41,156.07-151.35,189.55-178.87
	c48.6-39.96,86.98-47.73,103.14-57.91c-10.16-7.26-62.93-19.77-87.64-66.88c-97.87-186.58-116.48-129.84,12.07-123.64
	c75.63,3.65,144.25,86.52,136.13,162.95c-1.02,9.59-5.79,9.9,73.01-3.92c80.68-14.15,130.25,33.18,104.67-6.85
	c-142.16-222.46-103.44-261.91-187.57-275.9c-64.23-10.68-101.57-6.19-153.08-52.14c-38.27-34.13-103.79-116.86-70.01-105.54
	c80.5,27,94.44,16.83,170.35,27.84c54.36,7.89,78.05,47.02,94.21,58.45c2.51-19.37-7.07-35.95-6.79-59.71
	c0.9-75.76-79.01-149.25-30.83-294.13c51.15-153.8,10.78-203.33,20.97-208.66c10.28-5.37,78.62,100.75,114.27,171.19
	c54.86,108.4-48.02,257.24-74.61,310.32c-13.98,27.91,34.44,197.78,58.62,222.26c4.01-11.76,4.83-33.46,10.97-67.75
	c16.9-94.39,53.56-116.75,57.64-153.2c6.67-59.57,26.15-61.8,98.21-114.77c4.68-3.44,15.6-13.3,15.63-1.27
	c0.11,40.65,4.36,81.09-33.02,110.58c-42.12,33.22-60.95,27.59-67.82,41.41c-14.81,29.78-31.93,85.45-29.98,100.35
	c9.4-2.87,19.87-14.68,23.53-23.31c29.11-68.67,73.92-45.95,163.19-78.47c12.47-4.54,21.25-7.18,20.1,6.13
	c-7.02,81.6-87.64,116.32-169.26,97.28c-56.16-13.1-58.74,144.27-33.16,188.18c64.58,110.84,175.47,214.61,211.14,250.96
	c-34.54-103.17-4.36-133.77,29.67-274.28c0.67-2.77,3.37-5.05,5.13-7.56c18.49,20.68-5.97,11.68,39.59,110.37
	c21.21,45.95,38.32,81.81,20.5,139.65c-25.45,82.59-38.71,72.07-15.35,88.01c73.63,50.26,156.17,64.57,357.14,111.19
	c21.62,5.02,7.46,4.87-33.28-48.62c-126.5-166.1-89.05-250.56-126.05-290.96c-29.44-32.14-47.98-89.31-25.51-143.71
	c59.42-143.87,52.76-169.64,61.86-152.98c29.91,54.81,112.38,144.22,41.31,258.98c-30.05,48.52-46.5,63.13-44.07,75.4
	c10.93,55.13,67.19,194.29,79.19,165.16c22.62-54.93,26.41-56.88,25.96-72.32c-1.96-67.28,38.29-88.72,93.44-118.6
	c117.25-63.53,94.68-64.13,79.95,36.01c-12.38,84.12-63.06,93.91-150.93,108.24c-21.67,3.53-23.04,67.19-20.28,89.75
	c3.92,32.04,74.75,93.38,151.85,121.51c0.69,0.25,292,73.56,292.69,73.6c1.62,0.1,5.28-3.73,4.95-4.94
	c-14.36-52.99-7.66-88.42-22.73-168.46c-12.23-64.99-44.61-38.79-111.25-112.05c-29.9-32.87-29.57-51.5-45.95-137.16
	c-2.07-10.82-0.64-23.98,10.64-16.91c94.77,59.39,192.45,100.82,165.98,209.6c-4.05,16.63,20.69,81.71,25.11,90.22
	c34.63-28.09-5.78-65.06,54.34-105.93c36.68-24.94,61.58-62.06,61.2-43.42c-1.41,68.46,10.35,119.24-79.47,145.13
	c-30.69,8.84-44.12,102.23,5.06,161.49c7.46,8.99,8.25,7.71,104.74,50.88c33.39,14.94-12.98-12.67,18.99-402.83
	c14.79-180.56,47.26-206.87,39.44-272.07c-10.59-88.33-7.97-100.65-23.02-122.15c-83.91-119.83-188.58-144.52-190.47-145.5
	c-22.92-11.86-36.43,4.4-66.41,43.56c-32.9,42.96,121.05,112.61,92.88,239.08c-11.36,51.01-35.22,94.76-75.8,128.46
	c-24.65,20.47-36.12,17.03-45.28-14.09c-15.86-53.9-41.16-71.26-66.2-115.54c-46.86-82.87-12.31-171.8,49.91-209.24
	c9.22-5.55,9.69-8.21,41.26-71.64c4.24-8.51,2.44-8.11-5.07-7.97c-55.27,1.03-65.34-0.71-80.94,9.28
	c-43.75,28.03-58.65,16.21-105.55,150.64c-50.95,146.05-195.25,182.26-164.26,103.64c36.92-93.69,10.64-146.53,88.68-192.79
	c74.03-43.88,99.08-25.59,111.7-34.57c54.35-38.67,39.17-30.44,0.36-31.94c-27.84-1.08-62.31-5.01-91.79,1.2
	c-84.8,17.86-161.38-152.71-121.6-124.78c53.9,37.84,86.43,11.94,122.37,59.57c30.23,40.06,70.54,29.18,228.46,20.17
	c146.41-8.35,175.86,28.69,263.06,95.1c-24.79-147.8-234.37-323.7-353.8-398.17c-26.7-16.65-45.78,11.07-56.65,42.78
	c-27.1,79.01-96.6,93.98-179.23,85.17c-17.04-1.82-34.4-2.4-23.49-15.55c132.08-159.35,115.9-127.03,211.24-129.75
	c44.61-1.27-198.13-99.24-264.17-126.79c-20.43-8.52-28.57-3.23-87.56,12.69c-8.12,2.19-13.4,6.82-14.65,15.76
	c-1.45,10.35-4.97,20.56-5.25,30.89c-3.94,143.53-5.05,142.32,9.02,148.7c71.16,32.24,113.46,39.96,122.37,114.93
	c6.67,56.09,0.3,77.29,22.91,117.14c22.35,39.39-23.23,5-79.62-26.95c-130.83-74.14-81.4-105.89-95.57-214.97
	c-16.5-126.95-2.51-137.3-3.75-163.99c-50.62,16.13-134.26,110.59-138.19,158.58c-7.62,93.06-1.27,204.21-121.32,255.04
	c-20.83,8.82-12.65,10.65-24.9-146.14c-5.4-69.05,37.17-104.17,106.87-135.59c40.37-18.2,35.75-66.41,96.48-122.57
	c63.23-58.47,119.06-70.38,138.97-79.97c-13.04-11.13-60.76-40.55-75.74-49c-31.54-17.78-38.49-9.24-83.12,44.55
	c-62.52,75.34-152.97,72.51-228.63,21.79c-12.01-8.05,8.99-9.79,43.83-32.19c115.17-74.04,104.77-95.95,217.8-64.59
	c25.26,7.01-35.6-30.6-88.27-98.89c-11.47-14.88-24.7-17.71-40.34-12.73c-18.82,6.01-37.87,12.34-55.31,21.44
	c-58.94,30.77-176.02,7.02-188.6,2.78c7.46-11.57,85.78-83.93,146.24-91.73c33.85-4.37,82.57,15.97,72.43,11.9
	c-99.57-93.16-147.85-142.87-212.78-190.52c-49.7-36.47-91.79,19.94-178.14-44.13c-87.41-64.86-129.35-66.67-145.53-78.28
	c13.01-8.21,74.19-30.14,88.78-34.85c151.1-48.75,160.9,12.18,274.43,145.01c12.64,14.79,40.1,21.29,122.86,97.26
	c20.42,18.74,7.45-0.63-9.79-38.39c-92.73-203.11-62.27-234.1-99.06-270.87c-128.87-128.81-42.11-195.1-54.23-355.64
	c-7.13-94.47-19.72-102.63,43.97-36.11c121.82,127.25,84.02,122.38,74.61,426.3c-0.02,0.69,37.12,133.28,39.7,105.08
	c7.28-79.69,76.52-102.23,104.15-190.4c14.95-47.72,23.49,80.91,22.04,120.59c-3.15,86.39-111.23,123.51-100.14,147.52
	c30.37,65.73,64.79,128.94,112.63,183.96c15.27,17.56,4.11-11.75,0.47-53.43c-10.05-114.98,38.41-163.79,22.78-207.21
	c-27.31-75.86,24.68-84.63,70.15-186.46c6.78-15.18,8.19-25.16,29.52,49.79c37.87,133.07-75.33,151.85-78.49,172.96
	c-21.79,145.26-18.4,124.45,20.63,74.12c18.76-24.19,14.11-73.38,83.37-93.41c122.62-35.46,91.15-68.38,79.66,19.46
	c-8.73,66.68-83.63,101.52-133.25,88.16c-19.21-5.17-27.84-14.64-51.41,56.91c-6.01,18.25-10.89,44.65-4.92,63.03
	c5.02,15.46,24.56,77.05,36.76,87.23c121.13,101.01,299.75,209,292.85,176.35c-12.34-58.4-57.02-49.95-56.71-109.83
	c0.27-52.56,11.58-72.51-0.78-151.47c-0.58-3.69-0.41-7.5-0.58-11.26c3.9,1.37,8.43,1.9,11.6,4.25
	c67.31,49.8,141.41,87.42,68.72,235.94c-8.53,17.43,4.53,20.9,8.64,32.47c12.7,35.68,33.71,33.36,179.85,101.26
	c233.47,108.46,145.2,141.98,133.9-53.38c-9.42-162.89,20.74-187.44,5.69-227.81c-39.3-105.36,33.85-126.14,58.98-213.23
	c0.95-3.29,3.93-6,5.96-8.97c2.52,3.14,6.15,5.91,7.38,9.49c27.06,78.76,43.34,107.97,18.09,149.71
	c-41.99,69.43-58.7,86.09-60.39,103.34c-2.57,26.25-8.85,179.57,7.67,159.34c111.41-136.44,17.74-171.51,215.95-226.91
	c55.1-15.4,58.81-24.86,86.96-34.09c1.94,42.92-21.09,102.55-38.4,141.34c-44.22,99.09-190.77,34.87-216.36,81.96
	c-38.08,70.07-49.79,79.2-42.88,109.63c8.9,39.18,38.86,142.29,67.74,166.69c65.63,55.45,92.78,93.61,100.81,102.21
	c9.83,10.53,10.33-30.94,4.58-44.2c-30.47-70.27,16.38-113.9,48.42-161.05c38.37-56.46,36.21-64.05,42.8-53.86
	c60.15,92.99,49.02,142.89,7.65,188.12c-8.45,9.23-19.51,16.02-28.88,24.48c-69.3,62.54-64.83,51.09,46.79,232.03
	c1.67,2.71,4.03,5.01,6.06,7.5c2-2.93,209.06-576.28,188.35-649.73c-25.83-91.66-123.33-311.73-240.02-465.09
	c-12.47-16.38-18.22-17.19-76.49-34.44c-9.05-2.68-10.99-4.93-50.78,22.71c-6.65,4.62-1.24,27.41,3.2,47.22
	c12.66,56.49-18.47,80.5-59.65,117.14c-19.78,17.6-2.18-29-22.31-84.99c-16.18-45,7.75-82.6,55.18-88.31
	c13.13-1.58,16.76-13.1,25.57-18.93c-7.15-7.7-52.76-12.69-82.94,1.36c-14.66,6.83-18.99,39.14-59.82,62.01
	c-32.33,18.11-48.87,11.08-162.37,3.27c-5.23-0.36-12.71,0.55-13.54-2.66c-0.27-1.06,0.94-3.38,2-3.76
	c49.4-17.6,119.47-148.29,228.08-87.91c27.38,15.22,38.01-12.13,146.14,8.17c18.4,3.46,31.87,9.9,18.02-8.21
	c-31.9-41.71-169.22-207.99-220.89-209.96c-178.3-6.8-173.9-38.17-271.96-164.36c-6.62-8.52-32.96-29.39-16.17-26.39
	c52.01,9.29,104.54,0.82,156.67,4.64c167.41,12.26,156.01,148.35,184.56,168.41c170.47,119.8,279.59,319.57,316.31,343.41
	c29.09-45.94-47.12-46.38-6.71-152.91c20.7-54.55,19.97-87.66,31.31-131.14c108.95,90.98,89.61,191.18,7.95,253.34
	c-25.29,19.25-4.59,67.36,15.75,95.45c50.82,70.18,93.05,140.21,114.3,165.18c23.44-113.76-25.36-527.27-59.37-565.84
	c-35.63-40.42-122.99-133.53-177.14-135.28c-122.25-3.95-120.36-96.19-200.44-157.88c-10.69-8.24-5.12-18.5,5.91-18.6
	c119.5-1.05,207.64,22.55,231.68,136.65c6.51,30.9,10.67,26.08,122.87,105.84c5.15,3.66,9.03,7.01,5.99-3.32
	c-10.95-37.18-89.33-309.92-114.65-355.11c-19.86-35.44-72.75-46.01-84.66-143.9c-11.86-97.44-32.92-108.09-37.01-132.12
	c26.97,3.19,93.98,39.27,139.95,93.92c47.01,55.89-21.47,160.04,83.28,311.58c4.09-6.42,58.99-117.89,54.44-144.62
	c-7.99-46.88-15.21-79.31,11.56-112.35c39.61-48.88,67.04-85.66,85.02-145.98c17.46-58.57,41.06,105.89,41.85,132.9
	c4.78,162.98-178.68,141.18-158.74,373.67c1.42,16.53,60.34,235.68,78.94,258.87c15.63-34.64-11.04-2.49,68.01-192.44
	c19.91-47.84,40.93-74.09,39.21-95c-9.02-109.63,64.74-106.44,128.22-185.78c18.61-23.26,8.87-15.42,22.42-21.7
	c7.46,19.01-9.63,106.48-15.93,129.08c-14.67,52.63-67.61,79.88-113.23,113.35c-10.91,8.01-7.14-0.05-53.59,133.26
	c-8.52,24.45,43.6-31.97,49.08-46.67c34.29-92.01,91.11-67.93,166.79-111.21c3.26-1.87,7.97-1.21,12-1.73
	c-0.57,4.02-0.19,8.48-1.87,11.97c-34.22,71.26-48.84,116.67-124.48,126.33c-34.35,4.39-48.73,6.07-53.24,12.09
	c-72.19,96.4-73.67,98.66-76.6,119.82c-12.05,87.1-13.52,110.15-4.21,160.75c31.05,168.71,31.3,188.41,30,188.45
	c0.33,0.88,0.77,2.14,1.36,3.92c4.37,13.19,22.18-16.41,23.11-29.77c6.18-88.38,51.44-122.57,125.5-152.3
	c69.09-27.73,119.69-88.25,111.14-62.9c-37.97,112.57-11.14,223.35-155.81,255.61c-59.3,13.22-77.47-1.46-86.72,17.8
	c-30.42,63.33,34.88,169.78-25.96,541.48c-4.59,28.04-23.96,35.94,81.56-46.91c63.09-49.53,28.63-1.7,101.88-115.45
	c5.36-8.32,2.11-13.21-1.83-21.44c-35.75-74.75,17.21-93.41,64.66-200.44c18.41-41.52,13.51-67.01,55,40.39
	c23.68,61.29-21.54,134.39-76.86,168.81c-19.65,12.23-31.98,42.16-31.05,52.7c2.73-0.68,186.41-101.12,197.28-122.46
	c22.35-43.87,35.8-48.51,30.19-63.75c-39.8-108,25.32-113.33,65.12-247.42c20.68-69.67,22.52-16.01,41.94,37.15
	c24.04,65.81,12.86,126.51-27.61,179.07c-48.8,63.38-49.84,26-59.87,78.09c5.92-3.8,41.84-22.96,175.7-56.29
	c32.41-8.07,25.47-7.53,98.15-58.4c13.31-9.32,12.69-17.4,25.36-55.97c6.28-19.13-7.98-17.53-29.01-41
	c-32.74-36.55-20.42-68.63-28.42-132.24c-2.87-22.79-9.59-39.64-4.58-42.91c7.37-4.81,74.61,54.07,93.98,79.67
	c42.43,56.05-6.4,117.1-6.16,120.16c0.56,7,2.58,13.88,4.02,20.81c29.39-20.22,143.46-139.87,146.31-164.84
	c8.7-76.15,10.01-79.39-3.61-87.56c-34.85-20.9-61.6-48.78-62.51-89.21c-2.19-97.71-27.1-137.79-5.27-123.7
	c53.62,34.62,132.8,59.75,113.16,185.56c-6.5,41.68-26.23,10.01-8.07,67.48c16.27-23.21-7.68,19.4,84.28-162.27
	c16.18-31.96-59.25-90.82,9.36-206.36c82.22-138.45,79.93-130.46,84.51-117.35c24.21,69.31,54.69,162.19,19.53,234
	c-50.66,103.48-57.83,11.08-127.78,210.23c2.13-2.69,87.72-46.46,88.4-47.05c15.62-13.5,25.01-68.6,89.1-72.88
	c100.34-6.7,138.72-40.01,144.29-34.83c6.1,5.68-20.05,104.38-89.2,137.22c-105.34,50.03-126.48-23.27-158.73-1.98
	c-121.11,79.94-143.79,179.17-287.58,314.6c-67.52,63.59-70.97,46.82,43.57,42.56c88.11-3.28,96.7,4.03,113.94-8.21
	c29.68-21.06,40.08-20.25,38.16-36.31c-10.35-86.73,48.39-84.86,133.14-172.05c2.43-2.5,5.83-4.07,8.78-6.07
	c40.95,185.28-115.64,173.85-136.36,217.04c67.11,11.74,269.73-29.35,413.27-117.93c17.75-10.95,18.08-17.5,57.15-92.93
	c10.35-19.99-36.06-42.86-8.55-110.1c28.58-69.86,25.88-95.21,28.5-126.52c2.53-30.34,50.18,68.39,57.47,98.78
	c22.05,92-62.44,129.38-65.33,179.06c21.43-8.48,70.89-66.49,122.92-123.13c12.87-14.01,11.97-23.33,13.14-51.27
	c2.58-61.6,28.27-73.62,72.85-150.68c13.01-22.49,15.02-48.72,29.6-62.25c5.72,15.4,26.77,133.51,27.37,138.15
	c17.14,133.6-101.43,138.29-128.62,171.2c-52.74,63.86-110.73,162.34-274.87,226.95c-241.12,94.91-142.19,5.85,19.22,158.98
	c53.99,51.22,36.11,49.91,99.25,91.07c86.38,56.3,72.22,135.24,70.32,200.77c-1.5,51.91,2.65,61.19-19.13,47.03
	c-187.86-122.17-76.83-192.47-147.79-283.74c-10.91-14.03-26.26-24.63-39.78-36.58c-3.66-3.24-5.53-1.26-6.4,3.04
	c-14.91,73.73,32.25,90.76-13.32,174.51c-26.15,48.07-75.19,64.65-135.45,91.83c-11.69,5.27-15.04,3.56-14.95-9.34
	c1.67-251,173.95-181.64,136.62-278.06c-9.01-23.27-100.2-69.18-189.48-77.29c-29.57-2.69-9.47,2.74-212.39,24.21
	c-64.02,6.77-99.17-6.96-1.53,51.56c41.04,24.59,136.9,24.26,118.89,261.96c-0.38,4.99-2.56,9.85-3.93,14.77
	c-4.97-1.83-10.83-2.54-14.74-5.69c-191.88-154.4-136.75-218.11-180.08-296.58c-6.83-12.37-14.66-18.62-30.01-17.08
	c-173.6,17.38-399.58,107.78-448.52,153.73c32.54,14.26,291,2.46,479.82,240.17c37.16,46.78,39.57,52.79,60.56,61.32
	c25.09,10.21,120.96,36.68,144.91,23.88c22.93-12.26,13.04-33.03,11.43-46.22c-6.74-55.26,27.68-79.74,69.81-121.61
	c2.22-2.21,5.19-3.66,7.81-5.47c1.23,2.88,3.25,5.68,3.57,8.65c8.43,78.49,24.94,133.78-36.9,152.72
	c-22.47,6.88-23.49,10.76-29.4,20.9c7.71,4.33-2.34,3.23,42.94,7.26c28.35,2.52,40.98-16.15,64.31-35.38
	c46.88-38.64,95.2-22.99,158.06-9.64c3.21,0.68,5.89,3.85,8.81,5.86c-129.06,146.12-165.9,52.51-228.76,59.3
	c-30.16,3.26-122.97,4.22-182.19-11.59c-24.16-6.45,94.21,145.12,192.53,191.16c24.08,11.28,18.63-10.04,84.1-3.92
	c34.9,3.26,50.54,30.7,112.16,88.7c7.11,6.7,3.97,8.61-2.43,10.4c-33.47,9.36-67.14,17.42-102.39,14.71
	c-35.71-2.74-74.72-39.5-85.46-74.26c-8.45-27.34-83.74-10.76-205.98-158.05c-154.42-186.07-59.88-123.22-116.61,64.74
	c-9.52,31.54,24.42,56.39,13.08,105.6c-8.47,36.75-33.51,68.25-65.58,119.42c-52.45,83.71-33.23,169.07-66.95-51.73
	c-22.18-145.24,117.24-160.76,95.22-201.65c-6.97,5.44-4.18,8.09-9.36,16.37c-35.78,57.18-81.2,42.25-129.09,40.99
	c-35.67-0.94-54.73,10.72-85.56,19.44c6.09-12.83,0.39-13.1,52.33-67.66c30.18-31.7,70.72-38.73,114.27-35.95
	c25.62,1.64,66.3-10.87,67.44-36.53c1.97-44.35,6.27-126.27-22.22-156.58c-106.53-113.32-247.44-165.96-323.33-161.98
	c22.94,23.72,60.01,50.81,86.08,100.77c7.61,14.58,97.7,82.84,29.64,178.74c-38.75,54.61-32.52,64.1-44.65,83.86
	c-11.35-11.19-22.82-40.61-26.06-49.79c-38.1-107.81,67.07-147.11,12.79-218.03c-46.8-61.14-116.74-100.19-152.93-96.42
	c-23.97,2.5-135.59,20.01-152.76,36.74c-52.72,51.37-139.52,133.47-123.04,129.49c13.58-3.27,28.15-0.67,40.6-10.99
	c87.52-72.57,150.65,33.62,224.55,59.23c21.43,7.42,16.04,10.59-59.31,36.15c-124.16,42.11-148.88-78.51-186.66-69.04
	c-32.62,8.18-46.59,8.14-58.57,22.56c-38.98,46.92-113.35,153.55-124.73,186.37c-96.22,277.67-222.22,733.49-120.39,1016.55
	c3.28-5.56,6.92-10.94,9.8-16.69c98.85-197.56,144.42-206.44,174.65-282.37c7.52-18.9-80.56-15.73-50.84-145.64
	c19.38-84.72-14.64-162.22,8.37-137.49c78.25,84.08,117.93,81.28,103.22,202.8c-4.72,38.98-26.82,58.06-30.69,64.67
	c-22.04,37.65,89.69-73.28,115.5-85.49c110.44-52.25,211.65-400.26,189.54-425.41c-54.2-61.62-27.07-117.9-15.68-198.53
	c3.39-23.99,0.73-43.05,4.76-58.46c13.99,7.31,58.1,79.15,65.7,92.73c28.75,51.4,15.43,91.18-9.83,139.37
	c-21.57,41.16-47.11,198.46-33.59,181.44c61.19-77.1,100.48-79.62,104.4-107.74c11.99-85.95,82.66-71.12,155.64-130.92
	c2.25-1.84,5.69-2.23,8.58-3.3c0.41,2.57,1.39,5.19,1.13,7.7c-7.67,75.92-23.01,118.09-82.97,139.49
	c-42.26,15.08-78.73,18.82-87.48,27.27c-44.63,43.06-102.8,94.09-131.38,167.47c-82.33,211.38-93.48,29.3,369.63,80.96
	c40.11,4.47,145.11,19.72,145.48,19.85c33.91,11.9,66.92-13.44,64.51-29.94c-5.85-39.95,12.43-99.75,44.43-120.39
	c107.85-69.54,79.19-208.29,109.27-15.16c8.28,53.13-10.69,111.21-69.45,138.5c-41.76,19.4-45.81,6.99-68.77,32.19
	c-5.94,6.52-9.77,7.23,65.83,16.5c136.81,16.78,150.88,19.37,163,12.03c102.46-62.07,102.01-62.8,105.66-83.53
	c4.33-24.56,5.27-46.46-21.43-60.69c-13.38-7.13-24.12-19.04-36.76-27.75c-71.72-49.38-59.14-103.11-48.81-187.27
	c4.18-34.09,34.49,28.56,96.79,63.59c74.25,41.75,51.05,134.99,42.23,144.25c-12.83,13.45-8.16,41.68-1.59,46.64
	c3.39,2.55,58.25-75.86,60.51-79.1c4.71-6.73-6.73-32.46-9.96-53.52c-8.26-53.81,27.41-78.31,81.56-140.15
	c58.58-66.9,29.95-113.13,59.33,41.89c11.69,61.69-49.69,124.05-90.38,147.61c-17.18,9.95-14.92,45.25-84.23,129.08
	c-36.09,43.66-60.01,53.47-75.37,69.6c57.5-1.78,344.77-90.59,453.48-179.99c20.95-17.23,11.68-29.99,5.94-52.22
	c-11.75-45.48-62.44-5.5-88.68-68.03c-19.65-46.82-42.77-57.29-53.4-75.61c16.49-5.59,79.07,8.42,89.62,10.99
	c49.83,12.16,56.4,70.97,54.06,82.65c-3.05,15.22,6.36,23.36,14.63,32.67c4.25,4.78,6.4,2.47,7.6-2.4
	c15.58-63.16,14.2-47.13,3.48-79.41c-2.05-6.16-41.33-42.2-15.09-101.56c42.08-95.15,6.93-121.25,67.91-24.04
	c55.37,88.28-24.52,121.57-26.3,159.48c-3.97,84.41-30.96,87.61,56.19,6.87c42.72-39.58-20.78-101.85,65.28-157.13
	c76.16-48.92,106.76-105.08,102.88-84.79C4534.71,2508.72,4621.69,2662.69,4429.42,2694.93z"/>
</svg>
